<?xml version="1.0" encoding="utf-8"?>
<!-- Generator: Adobe Adobe Illustrator 28.6.0, SVG Export Plug-In . SVG Version: 6.00 Build 0)  -->
<svg version="1.1" id="Layer_1" xmlns="http://www.w3.org/2000/svg" xmlns:xlink="http://www.w3.org/1999/xlink" x="0px" y="0px"
	 width="512px" height="512px" viewBox="0 0 512 512" style="enable-background:new 0 0 512 512;" xml:space="preserve">
<style type="text/css">
	.st0{fill:#FDFDFD;}
	.st1{fill:#43413C;}
	.st2{fill:#FFFFFF;}
	.st3{fill-rule:evenodd;clip-rule:evenodd;fill:#FFFFFF;}
	.st4{opacity:0.5;fill:#FFFFFF;enable-background:new    ;}
	.st5{fill-rule:evenodd;clip-rule:evenodd;fill:#43413C;}
	.st6{opacity:0.5;fill:#43413C;enable-background:new    ;}
	.st7{display:none;fill:#FDFDFD;}
</style>
<path class="st0" d="M0,421V91C0,40.74,40.74,0,91,0h330c50.26,0,91,40.74,91,91v330c0,50.26-40.74,91-91,91H91
	C40.74,512,0,471.26,0,421z"/>
<circle class="st7" cx="256" cy="256" r="256"/>
<g>
	<g>
		<g>
			<path class="st1" d="M130.42,336.82c1.92-6.05-1.42-12.52-7.47-14.44c-6.05-1.92-12.51,1.42-14.44,7.47
				c-2.93,9.22-3.25,19.36,2.28,28.21c6.94,11.1,20.02,15.43,33.01,16.67c6.32,0.6,11.94-4.03,12.55-10.35
				c0.6-6.32-4.03-11.94-10.35-12.55c-10.64-1.01-14.53-4.09-15.72-5.98C129.53,344.64,128.73,342.11,130.42,336.82z"/>
			<path class="st5" d="M328.11,298.69c-3.48-5.83-11.05-7.73-16.88-4.25c-7.91,4.73-16.14,9.37-24.67,13.91
				c-8.75,4.66-17.46,9.03-26.08,13.06c-6.15,2.89-8.79,10.22-5.91,16.37c2.89,6.15,10.22,8.79,16.37,5.91
				c8.99-4.23,18.07-8.77,27.19-13.63c8.87-4.72,17.46-9.56,25.72-14.5C329.69,312.08,331.59,304.52,328.11,298.69z"/>
			<path class="st5" d="M392.73,261.9c4.2-4.23,4.17-11.05-0.06-15.24c-1.07-1.06-2.31-1.86-3.63-2.37c0-0.01-0.01-0.02-0.01-0.03
				l-0.01-0.01c-4.16-15.52-11.2-29.85-20.52-42.39c5.81-0.65,10.05-5.84,9.51-11.68c-0.55-5.93-5.79-10.29-11.72-9.75
				c-4.94,0.46-10.13,1.18-15.53,2.15c-22.16-19.58-51.28-31.45-83.15-31.45c-69.4,0-125.68,56.28-125.68,125.68
				c0,4.93,0.33,9.8,0.89,14.58c-4.8,4.82-9.13,9.61-12.87,14.3c-3.71,4.65-2.95,11.43,1.69,15.13c4.65,3.71,11.43,2.95,15.14-1.69
				c0.55-0.7,1.13-1.39,1.73-2.11c5.83,17.25,15.28,32.81,27.46,45.79c0,0.01,0.01,0.02,0.01,0.03c2.36,2.52,4.82,4.93,7.4,7.25
				c0.46,0.13,0.95,0.23,1.43,0.31c-0.48-0.06-0.96-0.17-1.42-0.3c22.28,20.13,51.81,32.39,84.2,32.39
				c69.4,0,125.67-56.27,125.67-125.67c0-4.94-0.29-9.83-0.84-14.61L392.73,261.9z M267.61,380.94c-19.36,0-37.5-5.28-53.03-14.5
				c5.34-1.77,10.78-3.71,16.29-5.77c6.36-2.39,9.58-9.49,7.2-15.85c-2.39-6.36-9.49-9.58-15.85-7.19
				c-10.68,4.01-20.99,7.43-30.74,10.24c-0.06-0.06-0.12-0.14-0.19-0.2c0.01-0.01,0.01-0.01,0.02-0.01
				c-17.26-18.58-27.82-43.48-27.82-70.83c0-57.51,46.61-104.12,104.12-104.12c49.6,0,91.11,34.68,101.57,81.12
				c-7.31,6.13-15.4,12.38-24.19,18.63c-5.54,3.94-6.83,11.62-2.88,17.17c3.95,5.54,11.63,6.83,17.17,2.88
				c4.22-3.01,8.31-6.02,12.25-9.05C368.13,337.86,322.89,380.94,267.61,380.94z"/>
			<path class="st1" d="M408.19,170.19c-6.17-1.46-12.37,2.37-13.83,8.54c-1.46,6.17,2.37,12.37,8.54,13.84
				c6.04,1.43,8.37,3.57,9.23,4.95c0.97,1.56,2.04,5.61-2.41,14.52c-2.84,5.69-0.52,12.59,5.16,15.41
				c5.69,2.84,12.59,0.52,15.42-5.16c5.79-11.62,8.63-25.28,1.31-36.98C426.34,176.89,417.47,172.39,408.19,170.19z"/>
		</g>
		<path class="st1" d="M109.67,123.53c2.32-5.87,10.61-5.87,12.93,0l7.17,18.18c0.71,1.79,2.13,3.21,3.92,3.92l18.18,7.17
			c5.87,2.32,5.87,10.61,0,12.93l-18.18,7.17c-1.79,0.71-3.21,2.13-3.92,3.92l-7.17,18.18c-2.32,5.87-10.61,5.87-12.93,0
			l-7.17-18.18c-0.71-1.79-2.13-3.21-3.92-3.92l-18.18-7.17c-5.87-2.32-5.87-10.61,0-12.93l18.18-7.17
			c1.79-0.71,3.21-2.13,3.92-3.92L109.67,123.53z"/>
		<path class="st6" d="M190.04,124.12c1.13,2.84,5.15,2.84,6.27,0l4.9-12.45c0.34-0.87,1.03-1.56,1.9-1.9l12.45-4.9
			c2.84-1.13,2.84-5.15,0-6.27l-12.45-4.9c-0.87-0.34-1.56-1.03-1.9-1.9l-4.9-12.45c-1.13-2.84-5.15-2.84-6.27,0l-4.9,12.45
			c-0.34,0.87-1.03,1.56-1.9,1.9l-12.45,4.9c-2.84,1.13-2.84,5.15,0,6.27l12.45,4.9c0.87,0.34,1.56,1.03,1.9,1.9L190.04,124.12z"/>
		<path class="st6" d="M405.82,432.28c1.23,3.35,5.62,3.35,6.84,0l5.36-14.71c0.37-1.03,1.13-1.85,2.08-2.25l13.58-5.8
			c3.1-1.34,3.1-6.09,0-7.41l-13.58-5.8c-0.95-0.4-1.71-1.22-2.08-2.25l-5.36-14.71c-1.23-3.36-5.62-3.36-6.84,0l-5.36,14.71
			c-0.37,1.03-1.13,1.85-2.08,2.25l-13.58,5.8c-3.1,1.34-3.1,6.09,0,7.41l13.58,5.8c0.95,0.4,1.71,1.22,2.08,2.25L405.82,432.28z"/>
	</g>
</g>
</svg>
