<?xml version="1.0" encoding="utf-8"?>
<svg version="1.1" id="Layer_1" xmlns="http://www.w3.org/2000/svg" x="0px" y="0px"
     width="512px" height="512px" viewBox="0 0 512 512" style="enable-background:new 0 0 512 512;" xml:space="preserve">
<style type="text/css">
	.st0{fill-rule:evenodd;clip-rule:evenodd;}
	.st1{opacity:0.5;enable-background:new    ;}
	.st2{fill:#43413C;}
	.st3{fill-rule:evenodd;clip-rule:evenodd;fill:#43413C;}
	.st4{opacity:0.5;fill:#43413C;enable-background:new    ;}
</style>
    <g id="_x3C_Group_x3E__00000097486622416408657820000009589667754542626985_">
	<g>
		<path class="st2" d="M79.19,329.02c2.33-7.34-1.72-15.19-9.06-17.52c-7.34-2.33-15.18,1.72-17.52,9.06
			c-3.56,11.18-3.94,23.48,2.77,34.22c8.42,13.47,24.29,18.72,40.05,20.22c7.67,0.73,14.48-4.89,15.22-12.55
			c0.73-7.67-4.89-14.48-12.56-15.22c-12.91-1.23-17.63-4.96-19.07-7.25C78.11,338.5,77.14,335.44,79.19,329.02z"/>
        <g>
			<g>
				<path class="st2" d="M374.84,264.86c-7.92,4.88-18.93,3.28-24.58-3.56c-5.65-6.86-3.8-16.36,4.12-21.23
					c18.19-11.2,34.32-22.35,48.01-33.11c1.35-0.83,2.63-1.66,3.84-2.44c-5.47-18.8-14.22-36.21-25.63-51.54
					c7.52-0.85,13.01-7.57,12.31-15.13c-0.7-7.67-7.49-13.32-15.16-12.61c-6.4,0.59-13.12,1.52-20.11,2.77
					c-28.7-25.34-66.38-40.71-107.66-40.71c-89.86,0-162.71,72.85-162.71,162.71c0,6.39,0.42,12.69,1.14,18.88
					c-6.22,6.25-11.81,12.44-16.66,18.51c-4.81,6.03-3.83,14.79,2.19,19.61c6.01,4.8,14.79,3.82,19.6-2.19
					c0.72-0.91,1.47-1.81,2.24-2.74c4.86,14.37,11.66,27.83,20.1,40.09c20.41-4.12,41.23-12.67,65.23-20.46
					c9.11-2.95,16.77,0.03,20.19,7.9c3.41,7.87-1.19,16.65-10.3,19.6c-15.32,4.96-38.41,13.82-53.48,17.85l3.45,3.73
					c28.85,26.06,67.07,41.93,109.01,41.93c89.86,0,162.71-72.85,162.71-162.71c0-5.39-0.28-10.71-0.8-15.96
					C399.72,244.54,383,259.83,374.84,264.86z M324.13,293.41c-11.82,6.11-24.11,12.1-36.82,17.93
					c-13.06,6.01-26.07,11.63-38.93,16.86c-8.8,3.57-19.3,0.3-23.43-7.3c-4.14-7.6-0.35-16.67,8.45-20.25
					c12.34-5,24.82-10.4,37.35-16.16c12.2-5.61,23.99-11.36,35.3-17.21c8.36-4.31,19.18-1.96,24.17,5.26
					C335.21,279.75,332.49,289.1,324.13,293.41z"/>
			</g>
		</g>
        <path class="st2" d="M416.16,126.88c-7.49-1.77-15.01,2.87-16.78,10.36c-1.77,7.49,2.87,15.01,10.36,16.79
			c7.33,1.74,10.15,4.33,11.2,6c1.18,1.89,2.47,6.81-2.92,17.62c-3.44,6.9-0.63,15.27,6.26,18.7c6.9,3.44,15.27,0.63,18.71-6.26
			c7.02-14.1,10.47-30.67,1.59-44.86C438.18,135,427.41,129.54,416.16,126.88z"/>
	</g>
</g>
</svg>
