<?xml version="1.0" encoding="utf-8"?>
<svg version="1.1" id="Layer_1" xmlns="http://www.w3.org/2000/svg" x="0px" y="0px"
     width="512px" height="512px" viewBox="0 0 512 512" style="enable-background:new 0 0 512 512;" xml:space="preserve">
<style type="text/css">
	.st0{fill-rule:evenodd;clip-rule:evenodd;}
	.st1{opacity:0.5;enable-background:new    ;}
	.st2{fill:#ffffff;}
	.st3{fill-rule:evenodd;clip-rule:evenodd;fill:#ffffff;}
	.st4{opacity:0.5;fill:#43413C;enable-background:new    ;}
</style>
    <g>
	<g>
		<path class="st2" d="M79.19,329.02c2.33-7.34-1.72-15.19-9.06-17.52c-7.34-2.33-15.18,1.72-17.52,9.06
			c-3.56,11.18-3.94,23.48,2.77,34.22c8.42,13.47,24.29,18.72,40.05,20.22c7.67,0.73,14.48-4.89,15.22-12.55
			c0.73-7.67-4.89-14.48-12.56-15.22c-12.91-1.23-17.63-4.96-19.07-7.25C78.11,338.5,77.14,335.44,79.19,329.02z"/>
        <path class="st2" d="M147.44,371.03c9.53-1.89,19.58-4.35,30.03-7.36c-9.68-6.19-18.52-13.58-26.31-21.96
			c-3.12,0.72-6.16,1.38-9.14,1.96c-7.56,1.49-12.46,8.83-10.97,16.38c0.09,0.46,0.2,0.9,0.33,1.33c3.06,3.26,6.25,6.39,9.58,9.39
			C143.01,371.35,145.22,371.47,147.44,371.03z"/>
        <path class="st3" d="M395.72,201.24c-12.46,11.32-27.13,23.07-43.68,34.86c-7.21,5.13-8.89,15.14-3.75,22.36
			c5.14,7.21,15.15,8.89,22.36,3.75c10.12-7.21,19.66-14.46,28.54-21.7c0.08-1.99,0.11-3.99,0.11-6
			C399.3,223.08,398.06,211.95,395.72,201.24z M161,365.12c13.6-3.92,27.79-8.64,42.38-14.11c8.29-3.11,12.48-12.35,9.38-20.64
			c-3.11-8.29-12.35-12.48-20.64-9.37c-21.97,8.25-42.67,14.57-61.34,18.88C139.71,349.51,149.88,358.01,161,365.12z M324.51,292.27
			c7.6-4.54,10.08-14.38,5.54-21.98c-4.54-7.6-14.39-10.07-21.99-5.53c-10.29,6.16-21.02,12.22-32.12,18.12
			c-11.4,6.07-22.75,11.76-33.98,17.02c-8.01,3.76-11.45,13.31-7.69,21.32c3.76,8.01,13.31,11.45,21.32,7.69
			c11.71-5.5,23.54-11.42,35.42-17.75C302.58,305.01,313.76,298.7,324.51,292.27z"/>
        <path class="st2" d="M115.17,250c0-74.46,60.35-134.81,134.81-134.81c64.52,0,118.46,45.33,131.7,105.87
			c3.73-3.39,7.23-6.74,10.51-10.04c4.04-4.08,9.97-5.13,14.99-3.16c-5.38-20.09-14.5-38.66-26.58-54.89
			c7.52-0.85,13.02-7.57,12.32-15.13c-0.71-7.67-7.49-13.32-15.16-12.61c-6.4,0.59-13.12,1.52-20.11,2.77
			c-28.69-25.34-66.38-40.71-107.66-40.71c-89.86,0-162.71,72.85-162.71,162.71c0,6.39,0.43,12.69,1.15,18.88
			c-6.22,6.24-11.82,12.43-16.66,18.51c-4.8,6.02-3.83,14.79,2.19,19.6c6.01,4.8,14.79,3.82,19.6-2.19
			c0.72-0.91,1.47-1.81,2.24-2.74c7.55,22.35,19.8,42.51,35.6,59.32c-0.14-0.44-0.24-0.88-0.33-1.33
			c-1.49-7.56,3.42-14.89,10.97-16.38c2.98-0.59,6.02-1.24,9.14-1.96C128.83,317.65,115.17,285.42,115.17,250z"/>
        <path class="st2" d="M249.98,412.71c89.86,0,162.71-72.85,162.71-162.71c0-6.41-0.38-12.73-1.09-18.94
			c-7.91,7.94-16.93,16.04-26.9,24.17c-2.74,72.04-62.01,129.59-134.72,129.59c-26.69,0-51.57-7.75-72.51-21.15
			c-10.45,3.01-20.5,5.47-30.03,7.36c-2.23,0.44-4.44,0.32-6.48-0.25C169.81,396.84,208.04,412.71,249.98,412.71z"/>
        <path class="st2" d="M392.19,211.02c-3.27,3.29-6.77,6.64-10.51,10.04c2.04,9.33,3.12,19.01,3.12,28.94
			c0,1.75-0.03,3.49-0.09,5.22c9.97-8.13,18.99-16.23,26.9-24.17c-0.92-7.92-2.41-15.66-4.42-23.2
			C402.16,205.89,396.23,206.96,392.19,211.02z"/>
        <path class="st2" d="M416.16,126.88c-7.49-1.77-15.01,2.87-16.78,10.36c-1.77,7.49,2.87,15.01,10.36,16.79
			c7.33,1.74,10.15,4.33,11.2,6c1.18,1.89,2.47,6.81-2.92,17.62c-3.44,6.9-0.63,15.27,6.26,18.7c6.9,3.44,15.27,0.63,18.71-6.26
			c7.02-14.1,10.47-30.67,1.59-44.86C438.18,135,427.41,129.54,416.16,126.88z"/>
        <path class="st2" d="M411.98,230.68c5.43-5.47,5.4-14.3-0.07-19.72c-1.4-1.39-3.01-2.42-4.73-3.08c2.01,7.53,3.5,15.28,4.42,23.2
			L411.98,230.68z"/>
	</g>
</g>
</svg>
