<?xml version="1.0" encoding="utf-8"?>
<!-- Generator: Adobe Adobe Illustrator 28.6.0, SVG Export Plug-In . SVG Version: 6.00 Build 0)  -->
<svg version="1.1" id="Layer_1" xmlns="http://www.w3.org/2000/svg" xmlns:xlink="http://www.w3.org/1999/xlink" x="0px" y="0px"
	 width="512px" height="512px" viewBox="0 0 512 512" style="enable-background:new 0 0 512 512;" xml:space="preserve">
<style type="text/css">
	.st0{fill:#43413C;}
	.st1{fill:#FFFFFF;}
	.st2{fill-rule:evenodd;clip-rule:evenodd;fill:#FFFFFF;}
	.st3{opacity:0.5;fill:#FFFFFF;enable-background:new    ;}
	.st4{fill:#FDFDFD;}
	.st5{fill-rule:evenodd;clip-rule:evenodd;fill:#43413C;}
</style>
<circle class="st4" cx="256" cy="256" r="256"/>
<g>
	<g>
		<g>
			<path class="st0" d="M93.36,331.24c2.22-6.99-1.64-14.46-8.63-16.68c-6.99-2.22-14.45,1.64-16.68,8.63
				c-3.39,10.65-3.75,22.36,2.64,32.58c8.02,12.83,23.13,17.82,38.14,19.25c7.3,0.7,13.79-4.66,14.49-11.95
				c0.7-7.3-4.66-13.79-11.96-14.49c-12.29-1.17-16.79-4.72-18.16-6.9C92.34,340.27,91.41,337.36,93.36,331.24z"/>
			<path class="st5" d="M330.85,283.07c-4.31-7.22-13.67-9.56-20.89-5.25c-9.78,5.85-19.97,11.6-30.52,17.21
				c-10.83,5.77-21.6,11.17-32.27,16.16c-7.61,3.58-10.87,12.65-7.31,20.26c3.58,7.61,12.65,10.88,20.26,7.31
				c11.13-5.23,22.36-10.85,33.65-16.86c10.98-5.84,21.6-11.83,31.82-17.94C332.8,299.63,335.16,290.29,330.85,283.07z"/>
			<path class="st5" d="M410.8,237.54c5.2-5.23,5.16-13.67-0.07-18.85c-1.32-1.31-2.86-2.3-4.49-2.93c0-0.01-0.01-0.02-0.01-0.03
				l-0.01-0.01c-5.15-19.2-13.85-36.94-25.39-52.44c7.18-0.8,12.44-7.23,11.77-14.45c-0.68-7.33-7.16-12.74-14.5-12.06
				c-6.12,0.56-12.53,1.46-19.21,2.66C331.47,115.19,295.44,100.5,256,100.5c-85.87,0-155.5,69.63-155.5,155.5
				c0,6.1,0.41,12.13,1.1,18.04c-5.94,5.97-11.3,11.89-15.92,17.69c-4.59,5.75-3.66,14.14,2.09,18.73
				c5.75,4.59,14.14,3.66,18.74-2.09c0.68-0.86,1.4-1.72,2.14-2.61c7.21,21.35,18.91,40.59,33.98,56.65c0,0.01,0.01,0.02,0.01,0.03
				c2.92,3.12,5.97,6.1,9.15,8.97c0.57,0.16,1.17,0.29,1.77,0.38c-0.6-0.08-1.18-0.21-1.76-0.37
				c27.57,24.91,64.1,40.07,104.19,40.07c85.87,0,155.49-69.62,155.49-155.49c0-6.12-0.36-12.16-1.03-18.08L410.8,237.54z
				 M255.99,384.84c-23.96,0-46.4-6.53-65.62-17.94c6.61-2.2,13.34-4.59,20.15-7.14c7.87-2.95,11.85-11.74,8.91-19.61
				c-2.95-7.87-11.74-11.85-19.61-8.9c-13.22,4.97-25.97,9.2-38.04,12.67c-0.07-0.08-0.15-0.17-0.23-0.25
				c0.01-0.01,0.01-0.01,0.02-0.01c-21.36-22.99-34.42-53.8-34.42-87.64c0-71.16,57.67-128.83,128.83-128.83
				c61.38,0,112.73,42.91,125.67,100.37c-9.05,7.59-19.06,15.31-29.93,23.05c-6.85,4.87-8.45,14.38-3.56,21.24
				c4.89,6.85,14.39,8.45,21.24,3.56c5.22-3.72,10.28-7.45,15.16-11.2C380.36,331.53,324.39,384.84,255.99,384.84z"/>
			<path class="st0" d="M414.22,138.77c-7.13-1.69-14.29,2.73-15.98,9.86s2.73,14.29,9.86,15.99c6.98,1.66,9.66,4.12,10.66,5.71
				c1.12,1.8,2.35,6.48-2.78,16.78c-3.28,6.57-0.6,14.54,5.96,17.81c6.57,3.28,14.54,0.6,17.82-5.96
				c6.68-13.43,9.97-29.2,1.51-42.72C435.19,146.5,424.94,141.3,414.22,138.77z"/>
		</g>
	</g>
</g>
</svg>
